<svg width="1440" height="48" viewBox="0 0 1440 48" fill="none" xmlns="http://www.w3.org/2000/svg">
<path d="M1440 0V17.4246C1436.87 16.4517 1433.82 15.3399 1430.77 14.2003C1426.06 11.2818 1421.37 10.309 1416.57 9.00261C1411.78 6.7512 1406.79 5.00009 1401.74 5.00009C1396.72 1.4701 1391.65 2.0816 1386.66 4.27742C1377.96 5.41702 1369.14 4.36081 1360.27 6.30647C1351.4 5.5838 1342.5 8.39112 1333.6 7.86301C1324.73 7.9186 1315.88 12.9773 1307.15 10.9483C1298.5 14.6728 1289.88 13.3665 1281.23 13.9502C1272.58 14.5339 1263.93 14.784 1255.25 14.8674C1246.57 14.0891 1237.87 11.0038 1229.11 14.784C1221.24 11.8377 1213.31 19.0645 1205.35 17.1188C1197.42 17.369 1189.46 20.7044 1181.56 22.1775C1173.66 21.6494 1165.76 29.4877 1157.97 26.7082C1151.21 30.1548 1144.14 30.2937 1137.15 28.5982C1130.14 27.4308 1123.21 29.5711 1116.66 32.434C1112.09 37.7151 1107.54 37.3537 1102.94 34.6854C1098.31 34.8244 1093.65 34.5742 1088.83 34.5742C1080.26 30.7107 1071.59 33.657 1062.94 34.9633C1054.26 36.7978 1045.61 31.3222 1037.07 34.2129C1031.19 32.7675 1025.4 32.0726 1019.63 31.1276C1013.84 31.5723 1008.07 29.7378 1002.22 27.9312C998.396 29.7656 994.599 25.7909 990.773 26.7638C986.975 24.7347 983.149 23.6229 979.295 25.513C975.248 26.18 971.117 27.403 966.958 23.8174C962.828 22.6222 958.641 21.3715 954.538 23.4839C949.881 23.4283 945.445 21.0657 941.009 24.8737C936.574 28.4315 932.11 27.6254 927.37 25.6241C921.714 25.7075 916.142 26.597 910.597 27.681C905.052 28.0979 899.536 28.4871 893.991 30.8497C889.167 31.8781 880.628 35.4359 875.583 32.5452C874.501 30.5995 872.699 30.127 872.256 30.6829C868.181 31.6001 865.408 28.4037 861.638 28.0423C858.616 29.6822 857.424 27.3752 853.82 23.4839C850.798 20.9546 847.083 23.067 843.368 23.0392C839.653 21.3159 835.938 21.2603 832.889 23.5951C825.986 23.5951 819.249 20.9267 812.568 23.6229C805.887 22.3165 799.288 22.5945 792.607 25.513C784.872 30.1826 777.11 26.18 769.347 29.1263C761.585 28.6538 753.794 28.4315 745.977 31.9059C735.969 36.0196 725.683 36.7422 715.342 33.3234C705.002 36.0474 694.55 31.211 684.237 31.7113C673.924 29.6823 663.722 30.6551 653.797 28.5426C647.143 30.9886 640.517 29.988 633.836 26.2912C627.183 25.3462 620.501 23.1226 613.792 25.7353C607.665 25.0404 604.754 28.626 598.628 30.1826C590.144 35.1023 581.716 28.6816 573.233 28.626C564.778 30.0992 556.322 24.012 547.755 27.9312C544.484 31.9059 542.239 32.4896 539.05 30.2937C535.613 31.4055 531.731 28.904 527.822 30.7385C523.913 30.4883 519.977 31.8225 516.401 30.0992C508.111 32.9621 499.323 32.5174 490.535 33.7959C481.747 35.3803 472.93 36.9368 464.669 34.1573C460.954 33.4902 457.461 29.2931 453.996 29.7934C450.502 31.8225 447.037 23.0114 443.378 25.6797C439.718 22.2053 435.615 24.9571 431.512 25.1794C427.409 25.4018 423.278 24.6513 419.48 25.7909C415.488 22.8446 411.08 22.3165 406.7 25.3184C402.319 27.0417 397.967 25.374 394.03 26.1801C390.482 30.8496 386.878 30.5995 383.246 29.2097C379.614 32.2672 375.982 31.9059 372.378 32.434C368.359 34.4908 364.339 31.8225 360.319 34.5186C356.299 37.9374 352.251 32.4896 348.204 36.1863C343.463 37.2147 338.75 38.4655 334.148 39.3272C329.574 40.5502 325.083 45.8313 320.813 44.4971C315.962 50.612 311.72 46.6929 307.395 47.4712C303.043 46.137 298.579 44.0246 293.256 45.7757C287.989 42.9683 284.108 48.3884 279.672 43.9134C276.151 49.1667 273.905 40.9393 270.884 39.0214C267.695 40.3 265.2 30.6551 262.151 30.0436C258.408 29.1819 254.527 25.4296 249.62 27.9867C246.099 28.7372 241.83 24.5401 237.588 28.6538C233.346 26.5692 229.16 27.0695 225.778 27.7922C222.368 29.6266 221.231 22.0108 217.489 25.7353C210.669 25.4018 204.736 25.9855 197.722 27.9867C194.257 24.1232 190.265 25.4018 186.272 27.3753C182.28 27.5976 178.316 25.7353 174.906 27.82C171.496 23.9008 168.252 29.9324 165.036 32.3506C161.82 34.0461 158.605 35.3525 155.222 36.909C146.379 37.4649 137.507 33.0177 128.691 34.9078C119.847 29.2653 111.087 31.1554 102.437 30.1826C96.5877 28.2091 90.1282 26.7915 83.6687 31.0164C77.2369 29.3765 70.8328 31.9336 65.1219 30.2937C61.3238 24.9293 57.498 32.1838 53.6444 27.8478C49.7909 25.7631 45.9374 21.2603 42.0561 25.7075C39.6719 20.3152 35.6521 28.7094 33.2679 25.6797C28.6658 19.8428 29.0262 29.5989 26.5311 31.1832C23.9529 34.0183 21.3746 42.3291 17.1052 41.4118C13.3903 46.6929 5.1288 41.3562 0 41.0783V0H1440Z" fill="currentColor"/>
</svg>
