<svg width="1024" height="64" viewBox="0 0 1024 64" fill="none" xmlns="http://www.w3.org/2000/svg">
<g clip-path="url(#clip0_37_580)">
<path d="M1.41041 27.7354L3.39099 29.0928L6.1618 27.8063L9.06266 28.7078L12.0635 27.938L16.8849 27.8265L19.6958 30.3387L22.6766 28.7787L25.9676 28.3128L29.3886 28.2216L32.5595 26.459L36.0406 26.378L38.9814 26.9148L41.4321 23.5315L43.9929 27.0769L46.0635 23.2783L48.7143 25.2232L51.365 23.805L54.2359 25.3447L57.1067 22.6502L60.3977 25.8816L64.2188 24.5951L67.4097 26.2665L69.3903 29.5486L73.9917 28.9408L74.7319 33.2764L77.9628 34.7756L78.663 38.6857L82.4742 40.043L84.1246 43.0617L86.7354 46.7085L89.7763 45.0066L92.297 43.7506L95.1879 43.2947L98.0987 42.9503L101.01 43.5176L102.71 45.9285L105.221 47.5897L106.401 49.2612L106.351 51.8443L108.422 54.478L109.722 57.4967L113.083 61.1333L113.543 63.9494L116.104 64L119.435 63.5239L121.716 61.0218L122.146 57.1624L126.177 56.2304L129.258 54.2855L129.908 49.7677L134.089 49.1193L136.67 46.7085L139.731 44.9965L141.972 41.208L145.603 40.661L149.054 42.0893L151.895 41.0358L154.345 40.276L158.176 40.823L162.067 41.5727L163.138 37.2472L167.539 37.3283L168.739 34.4008L170.56 31.8278L175.591 31.3821L178.352 31.686L181.293 29.3156L184.254 30.4603L187.105 30.987L189.015 32.8712L192.576 33.8234L194.557 36.994L198.578 35.8291L200.989 38.0272L203.41 41.0358L206.661 39.3137L208.341 41.7449L211.402 45.0472L213.593 45.817L215.333 47.5594L218.264 49.089L220.935 46.9009L224.426 45.8373L227.767 44.0545L231.348 43.0921L234.899 42.1399L238.3 40.6002L242.191 41.4916L245.892 41.988L249.633 40.043L252.814 41.4106L255.455 43.5986L259.286 43.477L263.097 42.7882L265.628 44.8851L268.579 46.1614L271.61 47.2859L274.52 45.0066L277.471 44.8952L280.372 44.3583L284.353 43.7607L288.915 45.5638L292.636 43.8316L295.196 39.1314L298.097 38.6451L301.128 40.2254L304.329 39.648L307.69 40.3773L310.711 37.8651L313.292 39.8405L316.253 38.4425L320.504 40.1342L324.545 37.9867L327.936 38.7464L330.917 38.3412L335.448 36.4166L338.389 33.4688L342.65 35.8189L347.002 35.0795L348.862 33.5499L351.393 34.654L353.964 32.9319L356.795 33.2764L359.625 33.0332L362.456 33.7727L365.157 34.8769L368.448 33.2257L371.149 34.5021L374.38 36.2646L377.871 37.3587L379.991 41.7752L383.602 42.9604L387.754 41.0256L390.264 44.3685L393.475 42.2007L396.366 43.0415L399.987 43.8822L401.688 40.2355L405.139 41.4511L408.27 40.8433L410.78 37.6727L414.701 38.0981L417.852 36.6192L419.813 37.4802L422.874 35.5353L425.715 34.6743L429.146 35.6062L428.836 39.182L433.127 39.3745L434.087 43.1934L437.038 44.6622L441.999 45.6752L445.711 48.1368L447.361 51.3884L447.621 55.0959L447.611 58.8034L448.992 61.8829L453.183 60.4546L457.664 62.1361L460.195 61.2346L461.535 58.1652L466.537 58.1349L467.297 54.9541L467.907 52.3204L470.478 53.8398L474.269 50.2336L477.46 50.2741L480.641 50.3349L483.842 50.3552L487.483 49.8386L490.064 47.0123L491.024 43.6493L495.175 42.2716L497.996 40.6103L499.316 38.1994L501.967 35.8696L504.758 35.8493L507.819 36.2343L511.09 37.0852L513.46 35.7885L516.041 35.5454L518.502 36.5787L521.663 39.1212L522.733 43.5378L526.944 44.409L530.695 45.9791L534.967 44.2976L538.448 44.8243L542.669 44.9763L545.11 43.0313L548.551 43.6189L551.232 42.7072L553.052 39.2934L557.133 39.415L557.793 35.2517L560.554 33.1751L564.035 31.5745L567.466 28.7483L571.837 29.1637L575.389 32.2735L578.249 30.207L581.16 29.2042L584.551 29.5486L589.223 26.4691L590.853 29.2346L592.534 33.0231L596.625 34.2286L599.105 34.7148L601.536 35.8898L604.367 37.4701L607.668 38.1184L610.389 39.9316L613.91 41.2181L615.88 42.7376L616.511 38.5945L619.531 36.6698L622.922 35.4137L625.143 32.8003L627.764 30.6021L631.415 30.4501L633.916 30.5818L637.217 29.4473L639.897 31.8886L642.488 32.5875L647.22 30.1969L649.97 34.9072L654.282 33.5904L659.693 33.874L661.224 36.8015L662.734 38.8984L664.795 40.114L666.875 42.5046L669.846 41.0155L674.398 43.082L678.159 41.3295L681.74 41.6841L685.211 41.8056L688.912 41.9778L692.763 42.2919L695.854 44.9155L697.374 46.5768L699.575 48.3292L701.195 50.7097L704.246 52.2596L706.247 55.4707L709.408 57.132L712.939 57.8917L716 55.3897L719.681 56.5445L722.452 54.7515L723.182 51.6619L725.863 49.0586L728.883 46.5464L729.954 42.9807L731.944 40.2456L736.596 41.5625L737.636 39.567L737.976 40.5191L739.637 40.7319L743.008 41.8259L746.529 42.3526L749.74 42.3729L752.861 42.302L755.431 41.9069L755.661 46.516L760.593 47.3973L761.563 51.6113L763.644 55.3694L764.564 55.6125L761.893 58.7224L764.734 57.8411L767.855 55.9873L770.846 53.5764L772.696 50.1019L776.948 49.5651L778.318 46.3742L781.939 45.3207L781.239 40.276L786.05 41.4612L789.001 40.0836L792.392 39.3238L796.123 40.1241L798.704 37.1358L802.395 36.7205L804.526 41.9069L808.057 40.9953L810.818 40.2963L814.319 39.648L817.439 38.1083L819.85 34.7857L823.771 37.4296L826.882 34.4919L830.013 37.7537L833.524 35.7075L836.405 38.1792L839.666 35.7784L842.437 35.9101L845.168 39.5264L847.748 38.9997L850.689 37.1155L853.53 39.3238L856.581 38.1792L860.162 39.5163L862.953 41.4612L863.573 43.4061L866.984 44.1659L869.935 45.1991L873.846 44.0139L877.407 42.0893L881.448 44.2267L885.119 43.4264L890.051 42.8186L892.321 40.8534L895.222 40.9851L898.603 39.5568L900.954 37.0345L904.095 36.4166L907.166 37.227L907.826 40.3773L908.436 43.0415L907.366 46.2931L911.037 47.8227L913.247 49.9196L913.628 54.3767L917.709 54.4983L920.74 54.478L923.711 57.1117L926.972 55.6936L929.882 58.1855L933.243 55.2884L936.484 53.3333L937.395 49.484L938.865 46.8705L942.006 45.7765L944.547 47.4581L947.157 45.8272L950.108 45.5739L952.939 43.8721L956.14 45.0472L959.201 43.8519L963.182 44.7737L965.163 40.9142L966.953 38.5742L968.524 35.6163L969.594 37.8651L970.244 38.8883L971.104 42.2108L975.906 45.2903L979.617 43.4973L982.998 45.503L986.359 43.6695L986.779 39.962L988.37 36.5584L992.281 34.4615L996.092 32.5267L999.823 35.0693L1003.47 35.7379L1006.63 36.2343L1009.85 35.9709L1013.09 37.1054L1015.6 34.188L1018.82 33.2865L1021.28 30.8857L1023.95 29.4979L1024 28.7382L1023.99 24.9193L1020.92 23.3897L1019.87 20.3102L1016.19 19.2365L1014.79 16.6129L1013.4 18.5274L1011.86 19.6214L1009.11 17.2915L1008.71 17.798L1007.91 15.7214L1004.18 14.6882L1000.43 13.9994L996.712 15.0731L992.961 12.723L989.34 13.6043L986.139 15.2656L982.538 13.7563L979.427 14.9009L976.236 16.8965L972.395 15.9038L968.534 16.0152L964.953 14.9313L961.222 16.3799L957.951 14.0399L954.7 12.8041L951.249 12.0342L948.408 9.92719L944.477 10.6363L943.596 6.73631L939.635 8.31656L937.014 7.46565L935.154 7.93162L932.213 8.5698L930.283 11.8519L926.792 12.7433L923.471 13.6347L920.31 14.8097L916.699 14.2627L913.688 16.0253L910.347 16.1469L907.076 17.5043L903.755 15.8227L900.614 14.6072L896.303 17.4739L893.062 16.6331L889.901 13.1079L887.52 12.9763L884.289 12.8547L881.178 10.9402L877.807 11.3251L874.466 11.5074L871.325 8.43811L868.114 7.75942L864.873 7.65812L861.192 9.38018L859.262 5.39918L856.101 4.3862L852.4 6.79709L849.379 5.92593L846.418 4.83191L843.467 2.93764L840.246 3.93036L837.145 4.27477L834.114 5.0345L830.303 4.46724L828.673 7.79994L825.072 7.58721L824.471 12.257L819.04 11.629L816.109 11.5176L813.308 10.3121L810.227 9.76512L806.836 7.81007L802.495 10.4337L799.414 9.13707L795.893 8.86356L792.642 7.44539L789.381 6.47293L785.96 6.57423L783.339 7.9924L780.669 9.30927L777.358 10.3425L775.377 13.3409H771.506L768.515 15.0529L765.034 12.4495L760.773 14.2627L757.622 11.9228L755.171 9.2485L751.82 8.49889L748.839 6.82748L745.318 6.7667L741.807 4.4875L737.886 3.04907L734.795 1.44856L731.734 4.24438L729.204 4.81165L726.113 4.26464L722.892 2.16777L720.161 4.87243L717.37 5.6119L714.479 5.80437L711.448 7.21241L708.888 9.59291L704.516 7.92149L702.036 10.4843L698.985 11.7911L696.244 14.283L692.743 14.364L689.282 15.0529L685.411 13.9082L681.6 12.7534L678.949 10.5147L675.698 10.1602L672.127 9.87654L668.386 9.71447L665.725 6.03735L662.204 7.58721L658.843 6.06774L655.682 7.13137L652.471 7.8911L649.92 10.2311L647.59 12.4394L645.489 15.7214L641.358 14.4046L638.167 14.7996L634.976 13.4422L631.745 16.3495L628.504 15.8126L625.323 14.7186L621.712 15.3871L619.612 12.6926L616.461 12.1659L613.85 9.13707L610.499 11.7303L607.458 8.41785L603.737 11.2035L600.366 8.28617L595.995 9.19785L593.604 5.66255L590.953 2.71478L587.342 1.6309L583.071 3.67711L580.02 0.0709085L576.319 1.93479L572.428 0L569.047 2.01583L567.076 4.45711L563.595 4.59892L563.615 8.99525L559.464 9.93732L555.643 10.7781L552.742 13.0674L550.181 14.4755L546.99 16.5116L545.79 12.3381L541.208 14.2526L538.248 10.383L534.377 10.2311L532.386 7.67838L528.195 9.7246L524.814 6.55397L519.912 8.01266L517.221 6.43242L514.261 5.90567L511.56 4.74074L508.529 6.12852L505.338 3.77841L502.037 3.85945L498.846 6.00696L496.045 7.3441L492.314 7.10098L488.363 8.98512L486.132 11.3758L482.901 12.5305L480.721 15.1238L477.01 14.7794L473.959 15.8227L470.618 18.0108L467.457 14.5565L463.556 17.9297L459.485 14.1513L456.374 13.5537L454.043 11.2137L449.062 10.6768L446.731 8.5698L443.84 7.72903L440.199 7.13137L436.548 7.50617L433.127 9.16746L429.636 8.65084L425.865 9.53213L422.084 9.67395L419.613 13.037L416.562 12.5002L412.951 12.1557L410.06 16.2482L407.119 17.8993L403.798 18.3045L401.098 19.4593L398.397 18.9427L395.516 18.5173L392.145 20.6546L390.254 17.2915L386.263 16.3393L384.022 13.2194L380.561 11.8417L377.781 9.32953L374.36 8.13422L370.529 9.20798L367.358 5.3384L363.596 6.96929L359.985 6.79709L356.714 6.99968L353.404 6.94903L350.173 7.59734L346.742 6.40203L343.561 7.10098L340.35 7.05033L335.678 9.11681L331.807 9.30927L327.956 9.75499L324.145 11.4163L320.764 11.9531L317.693 12.8243L313.842 13.0674L309.921 13.9285L308.35 16.9269L305.67 16.7141L301.418 17.0484L297.297 18.8819L294.876 16.7952L292.956 14.8807L290.515 11.1225L286.514 10.0893L283.963 8.99525L282.293 5.11554L278.452 7.28332L275.891 4.80152L273.06 2.49193L269.349 5.19658L266.368 4.69009L263.347 4.89269L259.186 4.6597L257.535 8.18487L257.345 12.3685L255.835 14.3539L252.754 14.7996L249.463 16.8864L246.422 14.0298L242.911 14.7287L240.14 12.2874L236.329 14.2425L233.218 13.3004L230.878 9.85628L226.526 7.3441L221.435 10.6464L216.834 11.4973L212.262 10.069L209.461 11.862L208.831 7.57708L203.8 9.30927L199.759 8.26591L198.188 6.04748L195.947 2.71478L192.326 4.17347L189.295 3.73789L186.215 4.39633L182.954 2.41089L179.563 3.65685L176.292 3.86958L174.111 5.40931L171.92 6.02722L168.399 7.32384L164.818 7.77968L162.117 10.1197L158.837 11.163L155.746 12.5913L152.845 14.4248L148.634 13.6853L145.503 15.2453L143.352 19.4391L139.841 16.1874L136.4 16.1064L132.069 15.2757L127.367 15.3365L124.436 13.9791L123.696 10.5958L121.706 8.33681L119.075 6.58436L116.724 3.0592L112.663 2.94777L109.362 2.30959L107.051 3.0592L104.771 3.04907L102.89 6.23995L99.4491 6.20956L96.0581 5.37892L92.8272 7.55682L89.5362 5.9867L87.0055 8.87369L83.2544 6.38177L81.0037 9.8968L76.1323 8.89395L73.1814 13.0877L69.3503 13.8879L65.5492 13.5435L63.8087 8.93447L60.9178 8.62045L57.8069 7.78981L55.9864 4.63944L52.7855 5.2371L50.6848 1.40804L46.2435 5.25736L41.1821 3.28205L38.4012 5.65242L35.8905 6.92878L32.7596 6.42229L29.1685 8.70149L25.8476 8.92434L22.6266 8.86356L19.9358 5.48022L17.145 7.64799L14.1742 7.84046L12.3136 5.78411L10.8232 5.10541L6.17181 3.76828L1.6905 6.06774L1.32039 9.6233L0.860252 13.2295L2.86084 16.8458L0 20.452L1.80053 24.0785L1.41041 27.7354Z" fill="white"/>
</g>
<defs>
<clipPath id="clip0_37_580">
<rect width="1024" height="64" fill="white"/>
</clipPath>
</defs>
</svg>
