<svg width="1024" height="64" viewBox="0 0 1024 64" fill="none" xmlns="http://www.w3.org/2000/svg">
<g clip-path="url(#clip0_37_579)">
<path d="M1022.51 26.9122L1019.52 28.7746L1015.92 28.5376L1012.41 28.436L1009.15 26.7683L1005.78 26.2265L1002.36 24.9905L999.539 26.0656L996.374 27.4116L993.932 24.4741L989.903 24.4233L986.738 26.6413L983.828 25.8286L981.183 23.5175L978.324 23.1788L975.953 22.1122L971.923 20.546L967.548 21.2995L964.465 21.2741L960.568 23.7291L957.23 21.7481L952.937 23.5937L951.705 20.7323L949.253 19.5556L946.699 17.5238L943.372 16.8127L940.401 15.9577L938.589 13.8582L936.972 11.3016L934.509 10.2942L933.176 8.48254L934.977 6.56931L931.864 5.54497L928.77 4.04656L925.484 4.29206L922.584 6.17989L920.864 3.83492L918.941 3.08148L917.018 5.13016L915.237 7.19577L911.473 7.74603L909.895 10.6667L907.586 12.1312L905.337 13.5111L902.59 15.0011L900.992 17.8116L896.261 17.7355L892.984 18.8275L890.298 21.1132L885.119 21.3587L883.267 22.9249L880.428 24.0677L877.172 23.6698L874.75 21.0032L870.904 22.7217L867.852 19.3693L863.761 20.0042L859.539 20.4614L858.338 17.1005L855.835 16.2709L853.729 15.5513L850.767 16.2878L847.664 17.1852L844.266 17.3122L841.091 19.928L837.692 18.0741L834.538 18.4974L831.75 17.236L828.575 17.5492L825.533 17.7524L821.829 17.1683L818.441 15.873L815.256 17.0921L812.122 18.4042L808.978 20.2074L806.505 21.7989L803.504 22.3746L800.115 22.2138L798.487 25.0751L794.468 23.2042L791.314 24.237L791.212 20.8423L786.338 21.1979L783.805 24.4148L778.697 23.7968L776.112 27.5725L772.948 25.7947L770.618 27.437L767.138 29.3841L764.462 29.6296L762.304 28.7238L758.143 31.1873L753.462 31.1365L750.104 30.9164L748.314 28.4698L746.207 26.5228L741.995 26.819L739.298 27.0392L736.429 28.9608L733.498 27.1492L730.487 27.8688L727.251 28.1481L724.015 27.437L720.779 27.1746L717.544 28.2836L714.318 28.4952L711.062 26.4889L708.091 26.6243L704.743 26.6667L702.759 24.0508L699.34 23.6783L696.247 23.3143L693.927 21.8497L690.956 21.9344L688.178 20.5799L684.79 20.6899L681.575 20.7661L678.441 19.9111L676.283 17.2868L673.18 16.6942L669.995 15.9577L666.485 16.4148L663.107 17.0497L660.766 19.9788L657.358 20.3683L653.481 18.6836L650.52 19.8519L647.386 19.6571L644.16 19.6825L640.976 20.4106L638.686 22.2307L635.196 22.527L632.164 23.763L629.071 22.3915L625.937 22.0529L622.314 20.546L618.509 20.3683L618.285 18.2603L616.555 16.7026L615.446 14.4508L611.783 13.3587L609.829 9.73545L605.301 11.0476L605.953 8.00847L603.877 6.92487L601.984 6.89947L598.911 5.90899L595.828 7.1873L592.531 5.65503L589.642 4.12275L586.681 6.34921L585.165 7.4328L581.898 9.91323L577.95 7.82222L575.213 8.66878L572.904 12.0296L568.864 10.2688L565.852 12.7238L562.922 13.1725L558.923 13.8328L554.782 12.5376L552.014 12.8169L548.727 13.9598L546.458 11.4794L543.314 10.6921L540.74 12.8169L537.402 13.3672L535.5 16.0762L532.783 18.0656L527.919 17.346L524.093 18.5481L523.92 23.018L520.257 20.8254L516.981 21.5958L513.297 20.6815L509.522 22.8487L506.022 23.5513L503.784 22.3323L501.341 22.3069L497.434 19.6656L495.236 18.2942L492.998 18.2688L489.996 18.9884L488.277 15.8815L484.125 17.0921L480.94 14.9841L477.725 13.7989L473.492 15.4413L472.709 11.9365L468.058 11.4116L464.456 10.4296L461.2 8.16085L458.066 7.85608L454.607 7.84762L451.453 9.02434L448.431 8.53333L444.971 6.58624L442.051 8.16085L438.398 9.23598L438.591 13.2233L434.918 10.345L431.814 10.4296L428.701 12.4021L424.631 12.8L420.327 13.9005L417.742 11.454L415.137 12.6899L411.841 13.5704L408.534 12.4614L405.227 12.419L401.899 14.3323L398.226 11.8688L394.838 12.9354L391.887 15.5513L388.122 14.3153L384.785 13.6381L381.274 15.7291L377.978 14.5016L374.956 16L372.015 14.9418L369.553 13.7566L365.503 16.2624L362.247 13.545L359.194 14.0529L355.897 14.0698L353.781 11.9704L353.384 9.15979L349.304 6.14603L345.071 7.67831L342.293 7.13651L339.088 4.39365L334.743 2.6836L332.667 4.39365L329.727 3.1746L326.237 4.02116L322.706 4.74921L319.735 7.11111L315.339 5.62116L312.083 7.96614L307.789 9.74392L305.886 8.05079L304.065 7.00952L302.529 4.89312L298.52 5.77355L296.79 2.97989L292.598 4.21587L291.875 0.897354L288.823 0L285.831 2.10794L282.372 2.22646L279.604 3.01376L276.46 1.69312L273.417 4.38518L269.449 5.18942L266.03 5.39259L263.344 7.00106L261.044 8.99894L258.053 10.2265L254.105 11.9365L253.026 14.2899L248.356 15.3397L244.469 14.3153L239.788 14.5608L237.855 11.0053L235.108 7.74603L230.712 9.67619L226.896 9.6254L224.821 8.66032L222.898 8.04233L219.062 7.88995L215.917 8.15238L211.98 7.62751L209.385 9.11746L206.689 8.5164L202.191 11.3355L198.019 9.16825L193.115 9.26984L189.401 10.836L185.677 11.8857L182.329 12.6392L177.16 12.3259L174.158 11.4201L169.885 12.0466L167.036 12.6053L164.726 13.9937L161.684 13.9429L158.112 14.2476L157.227 17.0074L154.469 16.3979L150.104 16.8381L146.014 15.9661L144.111 14.781L141.985 14.6455L138.891 13.3587L134.017 14.8825L130.67 14.3915L127.281 12.7153L123.588 12.1989L120.047 14.3661L116.323 12.6138L112.751 13.3164L108.091 13.782L105.893 16.7873L103.421 15.5683L102.281 16.491L97.3765 16.6857L94.212 16.0508L90.7423 14.8148L87.2827 14.527L83.5993 16.8296L79.8955 15.6698L76.1511 14.2307L74.7978 10.1164L70.7582 9.38836L67.0138 11.8095L63.6661 10.0233L60.0641 9.68466L57.3677 11.7587L54.132 12.1989L50.9268 11.3608L47.6199 14.2476L44.3333 12.8593L41.0467 12.6561L36.6714 11.7418L34.1784 15.2974L29.8336 16.4487L28.2972 18.6582L23.6166 17.5492L19.8925 17.8286L16.5143 19.4963L13.5228 19.1323L10.3889 16.9735L7.38718 17.0751L4.09042 16.4571L0 18.6413L2.01469 21.8074L3.50026 24.8127L3.12378 27.8857L1.34312 31.0011L1.2719 34.0656L2.788 37.0455L5.84056 39.0603L9.27977 38.0952L12.3018 37.3587L16.0056 36.927L18.1932 38.6032L20.6149 38.891L23.0875 39.5259L25.438 41.0497L27.9818 42.2942L30.8919 41.8116L35.603 40.4487L37.8008 39.4243L40.1716 38.637L42.2168 35.9534L45.422 35.3947L48.2507 34.4466L50.937 31.9323L54.6814 31.619L57.5508 29.5196L61.1122 29.8667L63.8696 31.0772L66.1794 33.0413L71.0126 33.4392L74.5332 34.2857L76.9651 36.309L79.8141 37.8159L82.6937 39.4582L86.4077 39.1704L89.1753 41.6762L92.3601 43.073L96.359 41.3968L99.1572 44.3683L103.217 43.4963L106.88 42.7513L108.885 39.7799L113.219 40.6434L115.376 37.3757L120.871 39.3058L124.137 36.5799H128.34L130.548 36.1058L133.529 35.1238L136.948 35.9026L140.407 36.2836L143.46 38.146L146.767 38.1206L149.636 36.2497L152.404 37.8243L154.765 35.4032L158.529 36.7407L162.182 34.9545L165.744 36.0296L168.348 35.5725L170.892 35.2508L174.27 35.6487L177.272 34.5143L181.057 31.2212L187.04 34.1926L188.719 32.254L190.469 30.0783L193.176 30.891L195.913 29.5619L198.813 29.0709L202.608 30.0614L205.813 29.4095L208.774 29.164L211.949 27.6825L215.083 28.1228L217.505 30.654L219.733 32.2963L222.928 33.1344L226.764 34.0317L226.316 37.8074L228.931 39.6106L230.437 42.0148L233.063 43.327L237.326 42.6751L238.445 45.7143L241.121 46.9333L243.574 48.4317L247.532 47.1534L251.103 49.3714L254.42 48.4402L257.636 47.0349L261.065 46.527L265.338 45.8921L267.648 46.9672L270.212 48.2878L272.461 50.0995L275.371 51.691L278.546 53.0201L281.547 54.5354L283.46 56.5841L286.218 57.3884L288.935 57.4392L291.743 58.9799L294.612 58.8021L297.156 56.6603L301.094 57.6931L304.503 56.127L308.471 55.763L309.855 51.691L312.164 50.7683L315.329 50.7005L318.514 49.9217L318.931 46.1376L323.032 46.3577L324.69 42.4889L328.475 41.1513L332.759 40.9566L335.181 38.8656L338.661 40.6434L341.479 39.0519L344.481 38.3407L347.34 38.6032L350.199 39.6529L353.109 39.6868L355.755 41.1936L358.573 40.6772L360.486 42.4042L364.495 41.5069L367.324 44.5968L371.801 43.4116L374.803 43.8349L378.11 42.2519L381.183 43.6741L384.205 44.673L387.41 44.9862L390.717 44.7069L392.508 42.1164L395.998 41.5661L398.44 39.873L401.33 38.8064L403.904 36.8339L406.702 36.055L410.599 37.3926L413.102 35.9026L415.27 33.0328L419.574 34.8444L422.362 31.3989L426.513 32.9735L429.871 31.0095L433.656 33.1683L436.973 32.9566L439.985 32.1947L441.918 33.7354L444.839 34.9884L448.258 32.2455L451.249 34.4381L453.996 34.819L457.049 32.5672L460.264 33.7016L463.53 34.4042L465.464 38.036L469.717 36.5122L472.373 38.6878L475.242 40.5757L479.546 39.0095L482.823 39.8815L485.234 43.0476L488.663 43.4116L491.675 44.3429L495.175 43.1915L499.612 44.2074L498.849 47.3905L503.519 48.0254L506.358 49.6085L508.505 51.6233L511.741 53.5788L515.322 51.8772L518.833 51.5894L522.506 51.9788L525.986 50.8783L529.567 51.3862L533.129 51.7333L536.741 51.0053L540.272 52.9439L543.874 53.0963L546.916 49.9048L550.376 50.0233L553.55 48.9651L556.908 48.4487L560.988 49.2444L564.133 47.873L565.944 44.3767L569.332 43.2L573.178 42.9968L576.282 40.6011L580.25 39.8899L583.089 40.8127L585.572 39.2974L588.919 39.9831L591.85 37.8836L594.719 39.9407L598.372 40.0677L599.807 42.0656L601.079 43.9365L604.091 43.8349L606.99 46.1037L608.914 49.4222L613.543 49.0243L616.596 51.564L620.361 52.0127L624.044 51.5217L627.656 52.3683L630.454 51.9619L633.324 50.5228L636.875 50.2603L639.286 48.1693L642.095 46.6286L644.221 44.3344L647.152 42.8614L650.978 44.4021L653.837 42.709L656.635 41.6423L659.087 39.6783L662.903 41.4222L666.363 41.6169L669.659 41.0751L672.905 39.4582L675.48 40.6688L678.095 38.7471L680.17 41.0413L683.223 41.0751L686.001 42.7175L689.226 42.3196L692.32 42.2688L695.179 43.1661L698.292 45.037L702.637 43.1238L705.384 46.3323L708.813 47.0942L711.958 48.4063L715.336 48.5926L718.938 48.2116L722.011 49.0328L724.646 50.9714L727.861 51.4286L730.68 53.0032L734.496 51.8095L737.039 54.4931L740.54 53.5788L743.745 54.2984L746.787 55.2466L749.83 55.6698L752.943 53.3333L756.047 54.6624L759.099 53.8074L762.081 52.7238L765.337 53.782L769.285 54.4L772.368 51.9365L775.787 50.8021L779.399 50.8275L783.001 50.6243L786.064 49.1005L788.963 47.1704L792.799 47.7799L795.598 44.7577L798.691 45.4011L801.693 46.6963L805.885 45.1302L810.077 46.3831L813.384 44.2582L816.986 44.7069L820.791 45.0201L823.294 42.2011L826.703 41.4815L830.102 40.6349L833.582 39.8899L836.644 39.272L839.219 37.5196L842.292 36.7831L846.901 36.1905L850.442 38.0444L853.393 39.1873L855.825 41.1683L859.773 40.5249L861.299 43.9111L865.074 44.6815L867.75 46.0106L871.332 45.6889L872.644 49.3968L877.274 48.0931L880.622 49.4815L881.995 52.9354L885.984 54.1545L885.058 57.6847L887.703 59.9026L889.698 62.4339L893.3 63.746L897.156 64L900.901 63.4497L904.452 62.2392L908.685 61.8328L913.111 61.5873L915.329 58.3788L918.748 56.4571L922.889 56.5418L924.965 53.7143L927.926 52.7492L931.06 53.3333L933.99 51.6741L938.05 52.8508L939.241 53.4434L942.263 55.6614L945.102 54.0444L947.818 52.9524L950.515 51.1407L952.987 48.9228L955.572 47.8392L957.475 46.9418L960.283 46.1037L963.234 45.2317L966.164 44.7831L969.176 45.5534L971.964 46.5185L974.895 46.8317L977.957 47.0603L982.272 47.1958L984.622 50.6159L989.211 49.7101L992.182 51.1661L995.448 49.8709L998.654 50.0402L1002.02 52.419L1005.18 51.2593L1007.98 50.8444L1010.66 49.6L1013.98 48.5841L1016.62 49.981L1017.01 47.9153L1018.83 45.4434L1020.33 42.9291L1019.76 40.1185L1020.7 37.5196L1021.69 34.9291L1022.27 32.2794L1024 29.7397L1022.51 26.9122Z" fill="white"/>
</g>
<defs>
<clipPath id="clip0_37_579">
<rect width="1024" height="64" fill="white"/>
</clipPath>
</defs>
</svg>
