<svg width="1024" height="64" viewBox="0 0 1024 64" fill="none" xmlns="http://www.w3.org/2000/svg">
<g clip-path="url(#clip0_37_578)">
<path d="M2.10183 58.1743L3.48359 56.8834L5.12808 54.9801L7.95971 54.285L11.3071 54.6325L13.6132 52.8286L16.9314 52.9941L19.3738 51.3887L21.9622 49.8991L25.2609 50.8508L28.5401 50.4619L32.0821 48.0703L35.7117 48.7158L39.0104 50.8094L42.7178 50.6108L46.2013 51.3887L49.2762 53.1678L53.2074 50.8756L56.3407 52.8782L59.7367 53.9457L63.1717 52.5389L66.6845 53.7223L70.0902 53.0437L73.457 52.4313L77.0379 52.6548L79.5582 50.4453L82.9639 51.3969L85.1922 48.4758L88.7537 49.9736L91.381 48.3682L94.1542 47.1352L97.9297 47.7228L101.024 45.9188L104.731 46.2333L107.621 43.428L111.533 45.2733L114.462 44.2969L117.615 44.6858L120.437 43.279L123.327 42.3853L126.129 41.3757L130.333 42.5343L133.515 41.0447L136.814 39.8779L140.268 37.8009L143.129 40.4903L146.369 37.8836L149.113 39.3483L153.132 39.4228L156.528 40.9868L159.408 43.9245L162.649 44.4624L166.015 44.5286L169.46 44.0155L172.545 43.4363L175.474 43.8583L179.074 44.9092L182.129 43.3204L183.9 40.1758L188.211 40.6724L191.393 39.3566L194.468 37.7264L198.049 36.3445L201.27 37.5278L204.89 36.9568L207.76 38.6449L209.813 41.624L214.104 40.4158L215.944 43.5438L220.128 42.6501L222.161 44.901L224.244 46.8291L226.443 48.5751L229.401 49.3944L231.844 50.8922L235.95 50.9584L238.84 53.383L241.798 54.2684L244.756 55.0628L247.753 55.7414L250.001 58.6791L253.553 58.6543L256.764 59.4073L259.994 60.0859L263.089 61.3189L266.203 62.6925L269.608 62.7587L272.946 63.098L276.293 63.4042L279.621 64L282.998 63.6938L286.355 63.6524L289.624 63.3463L292.534 60.9382L296.076 62.6015L298.849 60.5989L301.817 59.6307L305.602 60.9878L308.064 57.4213L312.268 58.5798L315.391 56.9413L318.534 55.4849L321.745 54.6822L323.536 51.6038L327.681 52.332L329.52 49.022L332.975 48.6082L336.458 48.6248L339.757 47.309L343.114 49.8743L346.559 47.9628L349.867 47.3256L354.343 47.9793L355.336 51.9845L357.914 54.2105L361.242 55.8738L364.093 55.9483L366.614 57.2475L369.387 57.4709L372.598 56.7261L375.79 57.173L379.244 58.1081L382.922 57.4213L385.949 54.8477L389.257 53.4161L393.451 54.3926L396.205 52.9361L398.676 51.2314L400.885 49.2702L404.719 49.684L407.483 48.6579L409.682 45.0416L414.051 46.738L417.242 44.1231L420.025 46.5312L423.908 45.3809L426.419 47.5904L429.717 47.0939L432.802 48.1696L436.354 47.2759L439.701 48.2027L443.418 48.0952L446.026 50.4701L449.198 51.5294L452.419 52.3817L456.253 51.0742L459.016 53.4326L462.948 52.0672L465.945 53.9209L469.428 54.2022L472.659 55.9317L476.016 55.7L479.246 56.5937L482.477 54.6325L486.116 56.4862L488.452 53.9871L492.247 53.8381L493.93 51.3473L495.818 49.2123L496.606 46.5725L498.328 44.4375L501.063 43.188L504.235 42.3688L507.222 41.4833L510.501 39.9028L514.199 40.1345L517.332 40.9289L520.495 41.6654L522.052 45.6623L525.37 46.0347L528.406 47.0111L531.783 47.2428L535.159 47.3752L538.234 48.1283L540.365 51.0494L543.391 51.7114L546.67 49.5764L549.492 48.9806L552.898 49.3199L556.382 48.5006L560.284 48.3848L563.154 46.0016L567.144 43.9079L572.934 44.3879L575.152 43.039L577.264 41.7647L579.911 39.1746L584.095 40.5813L586.313 38.5622L589.106 39.2656L592.395 37.4699L595.538 38.6615L598.117 40.2751L601.075 40.5896L603.07 44.0403L606.612 42.3522L609.609 42.2943L612.022 45.4388L615.807 44.6113L619.592 44.8099L622.239 41.715L625.917 41.6571L629.051 39.8448L632.943 41.475L636.027 39.158L639.482 38.7939L643.024 38.9925L646.439 38.5208L649.728 39.0173L651.976 36.3527L655.401 36.7913L658.029 35.3432L661.58 35.7983L664.1 34.1598L667.399 34.3584L668.499 30.676L671.885 32.3724L674.376 31.2718L677.315 29.5257L680.555 31.5945L683.572 31.909L687.182 31.5614L691.103 33.8454L691.697 37.1306L695.453 36.2534L697.477 40.4655L701.583 40.54L702.011 43.6514L705.865 44.4541L709.601 44.2307L712.9 45.9685L716.598 44.7934L720.013 45.4471L723.409 45.4802L726.727 46.0595L730.172 45.0665L733.792 44.6362L736.429 46.9201L739.883 47.0277L742.588 49.3695L746.286 49.1213L748.573 51.9348L751.628 52.6465L754.761 53.4409L758.333 53.7967L760.95 55.3938L762.303 58.6212L765.845 58.9935L769.28 59.9534L772.491 61.112L776.033 62.8994L780.022 62.858L782.766 61.1203L786.075 60.7479L787.437 57.3468L790.162 55.7331L793.022 54.525L796.915 54.7153L799.133 52.6134L802.773 52.332L804.709 49.9819L806.86 47.5573L809.837 46.8291L812.902 46.6222L816.182 46.3739L819.5 46.9697L822.721 47.4828L825.912 47.2097L829.153 45.4223L832.344 45.1906L835.604 47.5904L838.864 47.6566L842.104 48.3434L845.354 48.1779L848.594 48.211L851.825 48.3848L855.104 48.0869L858.306 48.6248L862.071 47.7393L865.487 49.1792L869.204 49.022L872.96 49.1792L876.424 49.444L879.46 50.7929L882.574 51.9017L885.542 53.4326L889.191 53.0851L891.439 55.6504L894.572 55.8242L897.579 56.3538L900.44 57.2309L903.787 56.7261L906.044 59.3742L909.275 58.9108L912.759 59.5397L916.378 61.0292L919.56 60.0362L922.509 58.9935L924.834 57.1978L928.016 55.7579L929.856 52.7541L933.407 51.7528L936.745 50.6025L939.022 47.4911L943.187 48.6827L946.631 48.5917L949.92 47.8883L953.151 46.5643L956.644 46.4981L959.875 45.4802L963.125 44.4458L966.56 44.5948L969.888 43.9245L973.313 44.5286L976.689 42.7825L980.037 44.843L983.394 44.8844L986.741 45.6457L990.098 45.0334L993.455 45.4802L996.812 43.9907L1000.19 45.7285L1003.17 44.901L1006.36 44.6279L1009.39 45.1409L1012.48 46.0264L1015.32 45.2733L1018.19 44.9506L1021.21 45.174L1024 43.5273L1022.99 40.871L1020.9 38.587L1020.93 35.7652L1021.79 32.7282L1019.86 30.4029L1017.14 28.2679L1017.62 25.3302L1017.33 22.4836L1013.46 22.1112L1011.25 20.0672L1008.17 19.7776L1005.34 18.5943L1002.37 17.6012L999.06 19.819L996.102 19.4135L992.852 17.0137L990.03 20.1583L986.264 18.1309L983.627 21.2258L980.134 20.7954L976.602 20.7375L973.391 21.9953L970.715 23.8986L967.105 24.6268L965.694 27.9121L962.774 29.5506L958.853 28.5741L956.216 31.5614L952.927 30.676L949.482 31.0732L946.933 28.8058L943.615 28.5741L941.299 27.4073L939.8 25.0737L936.667 25.7523L934.935 23.2614L931.403 23.3442L928.727 21.4575L925.798 20.0341L922.986 19.6783L920.261 19.0659L916.505 19.8438L914.247 17.9902L911.883 16.1117L909.392 17.9984L905.286 16.3848L902.794 17.8743L900.479 19.9183L897.9 21.3499L895.711 23.0463L892.558 24.1883L889.463 25.8847L886.223 25.7523L883.051 26.7122L879.811 26.4308L876.998 24.5606L874.322 22.9801L870.323 24.7261L867.131 24.1303L865.468 20.6796L862.159 20.3817L859.717 18.5363L855.785 19.2728L853.995 16.2689L851.154 14.9201L848.653 13.0085L845.627 11.8004L842.182 11.3039L838.932 10.708L835.672 10.2033L833.541 7.39798L829.892 8.38273L827.605 6.8932L825.231 5.06439L822.146 4.64236L818.643 5.67675L815.831 2.77217L813.554 5.04784L812.065 6.90147L809.662 8.26687L807.492 9.87225L804.894 11.1632L802.354 13.0334L801.08 16.1448L798.238 17.8578L795.737 19.6535L793.499 21.8464L790.882 23.6587L787.651 24.511L783.652 23.6421L780.976 25.322L777.629 25.4047L775.128 28.0941L771.839 26.8777L769.182 29.054L766.146 28.9547L762.994 29.6995L760.211 26.4143L756.999 27.068L754.615 25.3385L751.618 24.3455L747.648 23.7331L744.466 22.4174L743.065 18.4619L740.243 16.7737L735.602 17.0882L733.519 15.0359L730.571 14.0429L728.586 11.4114L724.985 11.6018L722.494 10.1619L719.42 8.59788L716.821 10.0626L715.138 12.4293L712.589 13.2899L709.309 14.4981L705.592 14.9449L703.656 17.7171L701.291 20.1831L698.216 21.5899L694.46 21.5154L691.638 23.4518L688.34 24.3207L685.041 25.1316L681.732 25.9095L677.743 24.2958L674.736 25.5371L671.71 26.6874L668.178 26.0667L665.268 27.6307L662.417 29.4926L659.401 30.7836L655.236 28.7727L651.995 30.9491L648.045 29.6333L644.766 31.5283L641.545 30.5684L638.82 32.331L635.823 31.8841L632.982 31.3711L629.868 31.5531L626.472 30.8332L627.173 27.1921L625.071 24.5275L626.112 21.623L627.396 18.2964L623.611 16.5751L622.249 13.9519L619.223 12.421L615.827 14.2995L612.752 12.0734L609.696 11.759L606.592 11.5604L603.478 12.4293L600.403 12.9258L597.562 14.5229L594.4 15.2097L591.276 15.5987L588.016 15.3256L585.185 16.4427L582.003 17.6509L578.762 19.2645L574.997 19.0659L571.698 16.9972L568.798 19.1156L565.606 18.0564L562.629 20.3734L559.622 19.6121L556.917 17.7833L553.677 18.3626L551.069 16.2441L547.653 16.36L544.306 16.1779L542.204 13.0996L537.835 13.8609L534.731 11.6762L531.705 10.0047L528.756 10.1122L527.122 8.2586L522.178 9.04474L518.675 4.56788L514.404 7.56349L512.234 10.4184L507.368 10.7577L505.889 12.9672L502.843 13.7202L502.299 17.0303L500.732 19.3307L497.91 20.7872L493.658 20.663L490.748 21.896L489.464 25.1647L486.437 26.2984L482.691 26.0915L480.716 29.0623L477.602 30.8829L473.924 30.4608L470.849 27.8128L466.918 30.4774L464.086 29.1451L462.335 26.5881L458.715 26.7287L456.798 24.7427L455.455 21.5899L451.65 20.8699L450.891 18.1226L448.536 16.5586L445.948 14.3905L442.98 12.6775L439.944 10.9894L435.721 10.708L433.785 8.27515L430.398 7.72899L427.713 6.25601L424.541 5.46987L422.614 2.16809L419.023 1.85363L415.423 1.11715L411.978 2.11844L408.456 2.63977L406.539 6.14844L403.104 6.6946L399.27 6.95112L397.859 10.3936L395.271 12.2803L391.515 13.2733L388.43 15.1021L383.934 14.9284L382.806 19.1901L378.884 19.8273L374.953 19.3721L371.528 22.1857L367.733 20.0838L364.298 19.2066L361.067 21.8216L357.671 21.0189L354.431 19.8024L351.278 19.4714L347.269 20.2162L343.941 19.0908L340.234 19.5128L337.928 16.5586L335.038 15.8552L332.167 14.9946L328.664 15.2759L326.513 13.2402L323.769 11.9659L320.296 12.9258L316.929 12.0983L313.484 11.9576L310.429 13.6788L307.646 15.1849L304.104 14.4153L300.717 14.3243L297.954 15.8138L294.782 16.2607L291.522 16.4013L288.914 17.8081L287.221 20.7706L283.747 20.1914L281.529 22.0036L278.969 22.9304L276.867 24.693L274.016 24.9661L272.168 27.2914L268.431 27.1756L264.724 27.8128L261.084 28.8637L257.756 28.6899L254.516 30.7587L251.383 28.8141L247.763 29.1202L244.62 27.7962L241.136 27.0184L238.762 25.0075L236.398 23.0049L233.566 21.5402L233.936 17.6509L230.024 17.5102L227.942 14.9946L224.147 15.549L221.986 14.316L220.595 11.9162L217.384 12.2224L214.406 12.1562L212.479 9.8226L210.193 7.45591L206.242 9.14404L203.78 6.91802L199.615 7.19938L195.597 5.97466L191.86 8.25032L187.822 7.37316L185.973 8.87923L184.192 10.3688L179.891 11.8335L177.478 14.0512L173.138 13.9354L170.17 15.4249L167.67 17.5599L164.663 19.0163L161.51 20.1996L158.815 21.4244L155.866 21.4078L152.198 21.4492L149.172 23.2201L146.846 21.1099L144.306 20.1665L141.008 20.5306L138.361 19.3059L136.152 16.6496L131.549 18.2302L129.029 15.0028L126.655 13.745L123.823 13.2651L121.137 12.57L117.002 12.3382L114.939 9.13576L110.609 7.91104L107.145 11.4694L103.213 9.5578L99.8759 10.2777L96.8399 12.1727L93.3952 11.6762L90.2133 12.0983L87.3233 13.745L83.9564 12.9837L80.8232 13.1244L77.5731 12.6527L74.4885 14.9863L71.4817 12.8927L67.784 12.4127L63.9209 11.6514L61.5369 9.91363L59.4935 7.96897L55.4747 8.11792L55.572 4.75821L52.1857 3.93897L52.4485 5.48642L48.78 5.2961L46.6879 2.5984L43.6908 2.49082L40.2753 2.9956L37.1518 2.52392L34.291 0.27308L30.8366 2.24257L27.713 0L24.463 0.331006L21.0961 0.959917L18.3813 2.75562L15.6956 4.61753L11.8909 3.88932L8.92305 5.27127L6.17899 4.79131L3.17221 5.15542L2.55917 6.7939L1.82937 9.48332L1.72233 12.1727L4.11608 14.9449L3.77551 17.6261L2.5689 20.2907L1.4596 22.9553L0.749264 25.6364L2.13102 28.3755L3.28898 31.1146L1.31364 33.7543L0.525458 36.4355L0.914685 39.1497L2.62729 41.8971L3.53224 44.6279L0.233537 47.2346L1.44014 49.9654L0 52.6299L1.34284 55.369L2.10183 58.1743Z" fill="white"/>
</g>
<defs>
<clipPath id="clip0_37_578">
<rect width="1024" height="64" fill="white"/>
</clipPath>
</defs>
</svg>
