<svg width="1024" height="64" viewBox="0 0 1024 64" fill="none" xmlns="http://www.w3.org/2000/svg">
<g clip-path="url(#clip0_37_577)">
<path d="M1.56894 54.4032L2.968 55.0722L4.49697 53.8696L6.9753 52.8103L7.45498 48.7646L11.3424 47.785L15.1598 47.6098L18.8173 49.3459L22.6348 47.0841L25.8426 49.6486L29.1104 47.5142L32.3282 48.6292L35.566 47.8089L38.7939 48.1991L42.0017 47.7292L44.8098 45.9452L48.7871 44.5993L52.6745 44.9019L55.8624 43.4047L58.9203 41.6446L61.5485 41.2544L64.9462 41.4375L69.2533 43.787L72.4612 44.4161L75.3792 45.3081L77.6877 47.3868L80.8455 48.3186L84.0534 49.1867L86.152 51.7272L90.549 51.0742L93.8468 51.8467L96.0053 52.6989L98.4837 54.4669L100.882 52.882L103.78 52.2608L107.148 51.7989L108.847 48.7964L112.364 48.3026L116.062 48.5336L119.14 46.4868L122.777 46.7815L126.335 47.6814L129.713 48.5655L133.82 48.4938L136.358 47.1478L138.986 49.1946L142.684 47.8566L145.532 50.1185L148.61 51.4485L151.858 52.1414L154.076 54.1802L157.084 55.4385L159.772 57.0552L161.551 59.548L165.169 59.8188L167.797 60.878L169.326 64L172.904 62.9169L176.061 62.6939L178.22 60.4002L183.177 61.4594L186.994 59.5321L190.062 57.6287L193.969 57.78L197.107 56.2748L199.875 55.0403L203.443 55.3191L206.001 53.7422L208.26 51.2653L211.278 50.4848L214.316 49.8079L217.823 49.0513L222.46 50.0866L225.048 47.4983L227.577 44.9099L229.375 42.7277L233.623 43.5162L235.821 41.0552L238.819 41.6526L240.268 42.1145L242.117 42.3454L244.975 42.1463L249.392 43.1976L253.189 43.5401L254.968 46.9647L258.126 48.3982L261.804 49.0194L265.601 49.1468L268.979 50.23L272.616 49.8556L276.304 50.2777L279.052 47.7929L283.459 48.7646L286.627 47.331L289.815 45.9851L292.013 43.4126L295.121 41.7003L298.209 39.8925L302.256 39.7332L305.434 38.9368L307.063 35.8785L309.971 35.5361L312.479 37.4475L315.158 37.9174L317.916 35.9502L321.054 37.3041L323.622 39.6615L327.469 40.1872L328.229 43.3649L332.716 42.7198L335.044 44.1215L337.343 46.4948L339.571 48.6929L343.039 49.4734L345.327 51.6476L347.996 52.7944L350.184 54.5306L353.212 55.4704L355.351 58.8552L360.047 58.7118L362.026 60.4958L365.014 60.3524L367.582 60.7825L370.34 63.554L371.78 60.2011L376.177 59.0543L379.564 57.5012L381.953 54.4669L386.19 53.9333L389.468 53.0971L392.955 54.8651L396.173 52.5157L400.22 52.6112L402.389 55.2633L405.407 54.1722L408.575 56.1951L412.182 54.9527L415.52 55.9004L418.978 55.6695L422.425 57.1906L425.813 55.335L429.321 55.789L432.758 55.3907L435.836 54.9368L439.144 55.0085L442.002 53.5032L445.54 52.3882L448.778 50.7715L451.965 50.5485L455.103 50.3892L457.882 49.1548L460.939 48.9637L463.837 49.7521L466.985 49.1628L468.794 50.9786L472.242 50.3733L474.071 53.2962L477.808 53.4953L481.166 53.6705L484.014 55.55L487.412 55.327L490.699 54.1563L493.947 53.7899L498.094 54.2439L501.622 56.9199L505.429 56.3464L508.917 57.8596L512.605 56.0836L516.112 55.8049L519.55 55.2713L522.168 54.2519L524.656 53.105L528.434 53.9014L530.153 51.6157L533.63 50.7237L535.629 47.8407L539.487 47.8089L542.804 49.7441L546.162 46.8133L550.399 48.0796L554.267 48.2708L558.214 46.447L560.632 49.4335L563.82 50.3972L566.928 51.7033L570.356 52.667L573.574 52.3245L576.542 52.3882L579.41 51.1538L582.458 51.0264L585.086 52.7227L588.074 51.0264L591.881 53.0971L595.479 52.3882L599.206 52.0219L602.134 49.9831L604.892 47.9522L607.711 45.7063L611.368 44.4719L615.935 45.6506L618.753 43.564L622.501 44.2728L625.069 41.6924L628.616 41.326L631.724 39.9721L634.812 38.8253L638.25 38.3793L641.678 39.9642L645.595 39.4863L648.863 37.8537L652.6 38.6819L655.698 38.0129L659.026 37.8855L661.804 38.9766L664.822 40.3624L667.99 40.3783L671.068 38.7855L674.056 38.3713L677.034 40.227L680.012 37.9253L682.99 37.8616L687.187 38.5704L690.865 40.2748L694.202 40.9676L697.39 41.9154L701.258 41.7083L703.616 44.0418L705.764 46.224L709.702 45.7461L712.02 48.0478L715.698 46.9726L718.716 47.3629L721.804 47.8487L725.091 48.8761L727.85 46.7098L730.898 46.2718L734.695 47.7531L737.163 45.5311L740.281 45.0453L743.149 43.9303L746.397 43.8586L749.255 42.4171L752.393 44.6869L755.491 43.2454L758.809 42.7914L762.186 42.0587L765.594 41.0393L768.632 42.1623L771.64 41.6048L774.608 41.565L777.936 43.4843L781.054 42.8631L784.491 42.2339L787.649 41.111L789.778 37.6466L793.875 38.9846L797.193 38.881L800.401 37.7899L803.619 36.5475L806.846 36.9378L810.084 38.1404L813.272 38.5704L816.58 37.0811L819.598 38.6899L822.846 38.5943L826.413 39.7173L829.921 40.7606L834.518 38.7695L837.536 40.0279L840.314 41.2782L843.232 43.6277L846.7 41.5888L849.817 44.01L853.335 42.1463L856.333 44.4002L859.501 45.0294L862.779 45.1329L866.246 44.878L869.724 45.0373L873.691 45.8497L877.449 48.1035L881.176 45.6108L884.984 46.7576L888.621 48.0319L891.989 45.4276L895.727 46.6381L898.764 44.1215L902.262 43.8825L906 44.1294L909.737 44.0737L912.485 44.2648L915.273 43.548L918.331 40.657L922.508 41.6446L925.786 39.5102L929.254 41.9313L932.772 41.3818L936.219 41.0632L939.657 40.6809L942.975 42.0986L946.212 42.2658L950.31 41.0951L952.448 43.7551L956.076 44.3763L957.755 46.8532L960.793 47.3947L963.511 48.8442L966.759 48.223L970.576 47.7213L974.284 47.9761L978.121 47.6018L981.779 50.007L985.876 49.9353L988.894 49.4734L991.812 48.9477L996.019 50.0149L999.547 46.662L1003.36 48.2389L1006.85 46.9806L1010.58 46.3912L1013.12 47.0204L1015.67 46.2718L1018.61 47.8805L1021.3 46.8054L1023.69 45.7302L1024 43.0861L1021.24 40.8243L1022.27 38.0528L1023.25 35.2892L1019.72 33.1309L1019.26 30.5585L1021.67 27.548L1017.72 25.6765L1015.87 23.3509L1012.86 21.2882L1009.03 20.7148L1006.01 21.9253L1003.1 21.2802L1000.46 20.213L996.918 20.8263L993.671 20.6351L990.413 18.5645L987.525 17.5689L984.537 19.6556L981.089 19.4246L977.861 20.4121L974.613 21.4395L971.406 22.658L967.838 23.0483L964.69 24.2031L961.472 23.6536L958.364 23.0642L955.626 21.3678L951.969 22.8412L949.071 21.8855L945.213 21.5112L941.176 20.8422L937.868 20.882L933.491 21.0413L929.644 20.6431L926.526 21.9731L924.987 24.896L922.129 26.2101L918.461 26.4251L916.503 29.0533L913.814 31.3629L910.147 31.2514L906.419 29.4355L903.281 31.8646L899.834 30.447L896.446 31.0124L893.108 29.786L889.691 30.2479L886.303 31.108L883.315 29.6028L880.247 28.7506L876.809 28.663L873.272 27.7392L869.844 26.7994L865.947 26.7675L862.599 25.326L859.471 24.7287L857.632 22.0129L853.895 22.4669L850.567 22.4988L848.578 19.4405L844.971 19.9582L841.853 19.3848L839.135 17.8716L836.367 16.438L832.859 16.884L830.201 14.9089L827.103 13.8576L823.795 15.2912L820.557 15.777L817.869 13.6745L814.961 13.778L812.003 14.009L809.155 12.7028L806.367 12.1215L803.479 11.8985L800.651 11.4286L797.483 10.9587L795.304 8.20309L791.217 9.77999L788.849 7.65356L785.631 7.35092L782.883 5.90941L779.485 6.666L775.727 5.30413L771.8 6.06073L768.952 6.93678L766.204 6.49876L763.955 7.80488L761.237 8.2668L757.709 8.51369L755.501 10.2578L752.363 11.11L750.744 13.8497L748.246 15.9044L744.918 16.9318L742.12 19.1538L738.522 20.0856L734.725 17.7442L731.897 18.2539L728.949 17.9194L725.971 17.3619L724.462 14.6302L721.164 15.331L718.266 16.0478L715.438 14.0806L712.17 13.2603L708.812 13.4993L705.754 15.4425L702.307 14.6222L699.349 13.547L696.431 14.7894L693.683 14.0727L691.424 16.7247L688.626 17.9114L685.828 19.0662L683.23 20.5794L679.572 21.0413L675.805 20.7865L672.537 21.5271L669.969 23.6137L666.631 24.2111L663.393 24.9836L659.785 24.8323L657.547 28.0657L654.219 28.1055L651.071 26.4808L647.674 28.8701L644.816 27.2852L641.418 27.4525L639.119 25.7083L637.341 23.8527L634.283 22.451L632.954 20.4042L630.405 19.0582L626.438 19.3688L623.69 18.676L620.712 17.5371L617.444 17.2265L614.156 17.4097L610.908 16.8761L607.681 16.3823L604.563 15.3629L601.515 14.4788L598.457 13.8576L595.269 13.6028L592.331 12.663L588.204 13.4993L585.076 12.3683L582.607 10.6959L581.608 7.38278L579.2 5.63066L575.482 5.47934L572.474 4.57143L569.406 3.90244L566.378 3.39273L563.38 3.10602L560.422 2.12643L557.804 0L554.416 0.0557491L551.728 0.143355L549.33 0.605276L545.962 0.947735L542.954 0.533599L540.126 1.11498L537.578 2.38925L534.63 3.27327L531.932 4.49179L529.233 5.65455L526.415 6.56247L523.198 7.40667L520.859 9.65256L517.731 10.672L514.543 11.0224L511.036 10.3693L508.358 12.2409L505.19 13.0134L501.962 13.5709L499.414 15.339L496.745 15.3629L493.827 16.3504L493.098 13.4674L489.68 13.4515L487.591 10.664L484.134 9.5331L480.496 9.00747L477.178 7.78895L473.691 7.19164L470.483 7.32703L467.455 7.1996L464.477 7.62967L461.999 9.26232L458.001 7.6456L456.143 10.4251L453.454 11.6197L451.016 13.2763L448.378 14.67L445.19 15.4823L442.262 16.7327L438.565 17.0433L436.376 19.2494L432.948 18.7795L430.24 21.105L426.862 21.4793L424.134 19.2096L420.647 19.3051L416.939 18.1185L413.821 16.2628L410.503 14.7815L407.176 12.5037L404.408 12.1692L401.35 12.0896L396.493 12.5117L394.284 11.3091L391.576 11.9303L389.148 13.4515L386.65 13.3479L383.981 14.3992L381.123 12.0657L377.256 13.9134L374.218 15.9443L371.12 17.991H367.213L364.125 18.2061L362.166 20.3166L358.678 19.9821L356.2 21.2325L353.482 22.674L351.033 24.673L347.606 24.8402L345.058 26.7277L341.49 26.5286L338.002 26.441L334.954 27.2852L332.536 29.5709L330.168 31.4903L326.49 31.3469L323.952 30.9487L321.433 29.9532L318.955 28.1055L317.856 25.6287L315.617 23.9482L314.298 21.2245L310.671 20.8263L307.623 19.8945L304.895 18.5963L301.887 17.5132L301.847 13.7461L299.178 12.7028L297.44 10.7596L293.542 11.3649L291.514 9.51717L288.915 8.3544L285.917 9.32603L282.56 8.65704L279.322 6.92086L275.894 7.32703L273.096 9.59681L270.288 10.2817L266.76 9.35789L264.172 10.672L262.243 12.894L257.716 12.2011L254.439 13.4913L250.901 14.3514L248.323 16.7566L245.225 18.3255L242.227 19.4724L238.509 19.2573L235.981 21.2882L232.523 21.3519L230.415 22.9686L227.846 21.7979L225.498 21.6705L222.6 23.2394L219.652 20.1891L216.014 21.105L213.446 19.0582L210.378 18.1105L207.73 16.5097L203.743 16.5336L201.334 14.5585L197.517 13.0533L193.65 11.2374L191.751 8.9119L189.432 6.51468L186.384 4.38029L182.177 5.87755L179.029 3.29716L175.272 4.5555L171.704 3.77501L168.087 2.87506L164.499 3.60777L161.591 4.7785L159.203 4.10951L156.565 5.95719L153.866 6.6899L150.559 6.84121L146.991 6.1324L144.573 9.16675L141.285 9.68442L137.527 9.66849L133.83 9.88352L129.793 9.48532L126.924 10.4968L123.777 11.102L120.599 9.29418L117.611 9.43753L114.133 9.77999L111.915 7.79691L110.006 4.58736L105.959 2.69189L102.131 4.82628L99.3331 2.60428L96.9547 1.99104L94.0466 1.62469L91.4684 2.26979L89.2998 0.135391L86.4318 1.75212L83.8635 2.9547L80.3758 0.51767L76.9382 2.46889L73.4005 2.222L71.7617 4.29268L68.5638 4.19711L66.0355 3.97412L63.4572 3.57591L59.9096 2.58835L56.1422 2.445L52.2348 2.94674L49.6366 3.72723L46.8684 1.87954L42.9211 3.26531L40.063 2.70781L36.9051 5.63863L34.0171 2.8671L31.7486 4.52364L28.181 4.03783L25.0731 5.89348L21.6154 6.89696L18.0378 5.79791L14.5202 5.27227L11.1125 4.40418L7.16517 1.97511L6.20582 4.19711L3.77745 4.65903L2.29845 6.76954L1.87873 9.40567L1.6389 12.0498L2.04862 14.6939L3.06793 17.3539L3.8574 20.006L2.12857 22.6341L3.33775 25.2942L1.67887 27.9144L0.619583 30.5505L0 33.1867L0.809455 35.8467L0.529643 38.4908L1.90871 41.1508L0.919381 43.787L2.60824 46.455L2.80811 49.107L0.209859 51.775L1.56894 54.4032Z" fill="white"/>
</g>
<defs>
<clipPath id="clip0_37_577">
<rect width="1024" height="64" fill="white"/>
</clipPath>
</defs>
</svg>
