<svg width="1440" height="48" viewBox="0 0 1440 48" fill="none" xmlns="http://www.w3.org/2000/svg">
<path d="M0 48V30.5754C3.13272 31.5483 6.18238 32.6601 9.23193 33.7997C13.9449 36.7182 18.6302 37.691 23.4263 38.9974C28.2224 41.2488 33.2127 42.9999 38.2583 42.9999C43.2762 46.5299 48.3495 45.9184 53.3397 43.7226C62.0448 42.583 70.8607 43.6392 79.7322 41.6935C88.6036 42.4162 97.5027 39.6089 106.402 40.137C115.273 40.0814 124.117 35.0227 132.85 37.0517C141.499 33.3272 150.121 34.6335 158.771 34.0498C167.421 33.4661 176.07 33.216 184.748 33.1326C193.425 33.9109 202.13 36.9961 210.891 33.216C218.764 36.1623 226.693 28.9355 234.65 30.8812C242.578 30.631 250.535 27.2956 258.436 25.8225C266.337 26.3506 274.238 18.5123 282.029 21.2918C288.793 17.8452 295.862 17.7062 302.849 19.4018C309.863 20.5692 316.793 18.4289 323.336 15.566C327.911 10.2849 332.457 10.6463 337.059 13.3146C341.689 13.1756 346.346 13.4258 351.17 13.4258C359.737 17.2893 368.414 14.343 377.064 13.0367C385.741 11.2022 394.391 16.6778 402.93 13.7871C408.807 15.2325 414.601 15.9273 420.367 16.8724C426.162 16.4277 431.928 18.2622 437.778 20.0688C441.604 18.2344 445.401 22.2091 449.227 21.2362C453.025 23.2653 456.851 24.3771 460.705 22.487C464.752 21.82 468.883 20.597 473.042 24.1826C477.172 25.3777 481.359 26.6285 485.462 24.5161C490.119 24.5717 494.555 26.9343 498.991 23.1263C503.426 19.5685 507.89 20.3746 512.63 22.3758C518.286 22.2925 523.858 21.403 529.403 20.319C534.948 19.9021 540.464 19.5129 546.009 17.1503C550.833 16.1219 559.372 12.5641 564.417 15.4548C565.499 17.4005 567.301 17.873 567.744 17.3171C571.819 16.3999 574.592 19.5963 578.362 19.9577C581.384 18.3177 582.576 20.6247 586.18 24.5161C589.202 27.0454 592.917 24.933 596.632 24.9608C600.347 26.6841 604.062 26.7397 607.111 24.4049C614.014 24.4049 620.751 27.0733 627.432 24.3771C634.113 25.6835 640.712 25.4055 647.393 22.487C655.128 17.8174 662.89 21.8199 670.653 18.8737C678.415 19.3462 686.206 19.5685 694.023 16.0941C704.031 11.9804 714.317 11.2578 724.658 14.6766C734.998 11.9526 745.45 16.789 755.763 16.2887C766.076 18.3177 776.278 17.3449 786.203 19.4573C792.857 17.0114 799.483 18.012 806.164 21.7088C812.817 22.6538 819.499 24.8774 826.208 22.2647C832.335 22.9596 835.246 19.374 841.372 17.8174C849.856 12.8977 858.284 19.3184 866.767 19.374C875.222 17.9008 883.678 23.988 892.245 20.0688C895.516 16.0941 897.761 15.5104 900.95 17.7063C904.387 16.5945 908.269 19.096 912.178 17.2615C916.087 17.5117 920.023 16.1775 923.599 17.9008C931.889 15.0379 940.677 15.4826 949.465 14.2041C958.253 12.6197 967.07 11.0632 975.331 13.8427C979.046 14.5098 982.539 18.7069 986.004 18.2066C989.497 16.1775 992.963 24.9886 996.622 22.3202C1000.28 25.7946 1004.39 23.0429 1008.49 22.8206C1012.59 22.5982 1016.72 23.3487 1020.52 22.2091C1024.51 25.1554 1028.92 25.6835 1033.3 22.6816C1037.68 20.9583 1042.03 22.626 1045.97 21.8199C1049.52 17.1503 1053.12 17.4005 1056.75 18.7903C1060.39 15.7328 1064.02 16.0941 1067.62 15.566C1071.64 13.5092 1075.66 16.1775 1079.68 13.4814C1083.7 10.0626 1087.75 15.5104 1091.8 11.8137C1096.54 10.7852 1101.25 9.53447 1105.85 8.67282C1110.43 7.44983 1114.92 2.16872 1119.19 3.50289C1124.04 -2.61205 1128.28 1.30709 1132.6 0.528819C1136.96 1.86299 1141.42 3.97543 1146.74 2.22433C1152.01 5.03165 1155.89 -0.388425 1160.33 4.0866C1163.85 -1.16669 1166.09 7.06069 1169.12 8.97856C1172.3 7.69998 1174.8 17.3449 1177.85 17.9564C1181.59 18.8181 1185.47 22.5704 1190.38 20.0133C1193.9 19.2628 1198.17 23.4599 1202.41 19.3462C1206.65 21.4308 1210.84 20.9305 1214.22 20.2078C1217.63 18.3734 1218.77 25.9892 1222.51 22.2647C1229.33 22.5982 1235.26 22.0145 1242.28 20.0133C1245.74 23.8768 1249.74 22.5982 1253.73 20.6247C1257.72 20.4024 1261.68 22.2647 1265.09 20.18C1268.5 24.0992 1271.75 18.0676 1274.96 15.6494C1278.18 13.9539 1281.4 12.6475 1284.78 11.091C1293.62 10.5351 1302.49 14.9823 1311.31 13.0922C1320.15 18.7347 1328.91 16.8446 1337.56 17.8174C1343.41 19.7909 1349.87 21.2084 1356.33 16.9836C1362.76 18.6235 1369.17 16.0663 1374.88 17.7063C1378.68 23.0707 1382.5 15.8162 1386.36 20.1522C1390.21 22.2369 1394.06 26.7397 1397.94 22.2925C1400.33 27.6847 1404.35 19.2906 1406.73 22.3202C1411.33 28.1572 1410.97 18.4011 1413.47 16.8168C1416.05 13.9817 1418.63 5.67093 1422.89 6.58818C1426.61 1.30709 1434.87 6.64375 1440 6.9217V48H0Z" fill="#401500"/>
</svg>
