<svg width="256" height="256" viewBox="0 0 256 256" fill="none" xmlns="http://www.w3.org/2000/svg">
<rect width="256" height="256" fill="#401500"/>
<path d="M81.79 113.03C81.0356 112.102 80.4989 111.016 80.2194 109.853C79.9399 108.69 79.9247 107.48 80.175 106.31C83.89 88.75 104 76 128 76C152 76 172.11 88.75 175.825 106.31C176.078 107.48 176.065 108.693 175.787 109.858C175.509 111.022 174.973 112.11 174.219 113.04C173.464 113.97 172.511 114.719 171.428 115.231C170.346 115.743 169.162 116.006 167.965 116H88.035C86.8382 116.004 85.6558 115.739 84.575 115.225C83.4942 114.711 82.5425 113.961 81.79 113.03ZM178.63 140.24L158.065 147.74L139.5 140.285C138.547 139.904 137.483 139.904 136.53 140.285L118.03 147.69L99.5 140.285C98.5878 139.921 97.5733 139.905 96.65 140.24L74.65 148.24C73.7202 148.649 72.9809 149.397 72.5823 150.331C72.1837 151.266 72.1555 152.317 72.5036 153.271C72.8516 154.226 73.5498 155.012 74.4564 155.471C75.3629 155.929 76.41 156.025 77.385 155.74L84 153.345V156C84 161.304 86.1071 166.391 89.8579 170.142C93.6086 173.893 98.6957 176 104 176H152C157.304 176 162.391 173.893 166.142 170.142C169.893 166.391 172 161.304 172 156V151.165L181.365 147.76C181.89 147.606 182.378 147.347 182.799 146.997C183.22 146.647 183.564 146.214 183.811 145.726C184.058 145.238 184.202 144.704 184.234 144.158C184.267 143.612 184.187 143.065 183.999 142.551C183.812 142.037 183.521 141.566 183.145 141.169C182.768 140.772 182.314 140.457 181.811 140.242C181.308 140.027 180.766 139.918 180.219 139.921C179.671 139.924 179.131 140.04 178.63 140.26V140.24ZM76 132H180C181.061 132 182.078 131.579 182.828 130.828C183.579 130.078 184 129.061 184 128C184 126.939 183.579 125.922 182.828 125.172C182.078 124.421 181.061 124 180 124H76C74.9391 124 73.9217 124.421 73.1716 125.172C72.4214 125.922 72 126.939 72 128C72 129.061 72.4214 130.078 73.1716 130.828C73.9217 131.579 74.9391 132 76 132Z" fill="#FFEFD9"/>
</svg>
