<svg width="32" height="32" viewBox="0 0 32 32" fill="none" xmlns="http://www.w3.org/2000/svg">
<rect width="32" height="32" rx="6" fill="#FFEFD9"/>
<path d="M8.77969 13.6609C8.66181 13.5159 8.57795 13.3463 8.53428 13.1646C8.49061 12.9829 8.48824 12.7937 8.52734 12.6109C9.10781 9.86719 12.25 7.875 16 7.875C19.75 7.875 22.8922 9.86719 23.4727 12.6109C23.5122 12.7938 23.5102 12.9832 23.4667 13.1652C23.4233 13.3472 23.3395 13.5172 23.2217 13.6625C23.1038 13.8078 22.9548 13.9248 22.7857 14.0048C22.6166 14.0849 22.4316 14.1259 22.2445 14.125H9.75547C9.56847 14.1256 9.38372 14.0842 9.21485 14.0038C9.04597 13.9235 8.89726 13.8064 8.77969 13.6609ZM23.9109 17.9125L20.6977 19.0844L17.7969 17.9195C17.6479 17.86 17.4818 17.86 17.3328 17.9195L14.4422 19.0766L11.5469 17.9195C11.4043 17.8626 11.2458 17.8601 11.1016 17.9125L7.66406 19.1625C7.51878 19.2264 7.40327 19.3433 7.34098 19.4893C7.2787 19.6353 7.2743 19.7995 7.32868 19.9487C7.38306 20.0978 7.49215 20.2206 7.6338 20.2923C7.77546 20.3639 7.93906 20.379 8.09141 20.3344L9.125 19.9602V20.375C9.125 21.2038 9.45424 21.9987 10.0403 22.5847C10.6263 23.1708 11.4212 23.5 12.25 23.5H19.75C20.5788 23.5 21.3737 23.1708 21.9597 22.5847C22.5458 21.9987 22.875 21.2038 22.875 20.375V19.6195L24.3383 19.0875C24.4203 19.0635 24.4966 19.0229 24.5623 18.9682C24.6281 18.9136 24.6819 18.846 24.7205 18.7697C24.7591 18.6934 24.7816 18.61 24.7866 18.5247C24.7917 18.4393 24.7792 18.3539 24.7499 18.2735C24.7206 18.1932 24.6752 18.1198 24.6163 18.0577C24.5575 17.9957 24.4866 17.9463 24.408 17.9128C24.3293 17.8792 24.2447 17.8622 24.1592 17.8627C24.0737 17.8632 23.9892 17.8812 23.9109 17.9156V17.9125ZM7.875 16.625H24.125C24.2908 16.625 24.4497 16.5592 24.5669 16.4419C24.6842 16.3247 24.75 16.1658 24.75 16C24.75 15.8342 24.6842 15.6753 24.5669 15.5581C24.4497 15.4408 24.2908 15.375 24.125 15.375H7.875C7.70924 15.375 7.55027 15.4408 7.43306 15.5581C7.31585 15.6753 7.25 15.8342 7.25 16C7.25 16.1658 7.31585 16.3247 7.43306 16.4419C7.55027 16.5592 7.70924 16.625 7.875 16.625Z" fill="#401500"/>
</svg>
