<svg width="135" height="32" viewBox="0 0 135 32" fill="none" xmlns="http://www.w3.org/2000/svg">
<path d="M4.4475 12.2575C4.25889 12.0255 4.12472 11.7541 4.05484 11.4634C3.98497 11.1726 3.98118 10.8699 4.04375 10.5775C4.9725 6.1875 10 3 16 3C22 3 27.0275 6.1875 27.9562 10.5775C28.0195 10.8701 28.0162 11.1732 27.9467 11.4644C27.8772 11.7556 27.7432 12.0274 27.5546 12.2599C27.3661 12.4924 27.1277 12.6796 26.8571 12.8077C26.5865 12.9358 26.2906 13.0015 25.9912 13H6.00875C5.70955 13.0009 5.41396 12.9347 5.14375 12.8062C4.87355 12.6777 4.63562 12.4902 4.4475 12.2575ZM28.6575 19.06L23.5163 20.935L18.875 19.0713C18.6367 18.976 18.3708 18.976 18.1325 19.0713L13.5075 20.9225L8.875 19.0713C8.64694 18.9801 8.39332 18.9761 8.1625 19.06L2.6625 21.06C2.43005 21.1623 2.24523 21.3493 2.14557 21.5829C2.04591 21.8165 2.03888 22.0792 2.12589 22.3179C2.2129 22.5565 2.38744 22.753 2.61409 22.8676C2.84073 22.9823 3.1025 23.0063 3.34625 22.935L5 22.3363V23C5 24.3261 5.52678 25.5979 6.46447 26.5355C7.40215 27.4732 8.67392 28 10 28H22C23.3261 28 24.5979 27.4732 25.5355 26.5355C26.4732 25.5979 27 24.3261 27 23V21.7913L29.3412 20.94C29.4725 20.9016 29.5945 20.8366 29.6997 20.7492C29.8049 20.6617 29.891 20.5536 29.9528 20.4315C30.0145 20.3095 30.0505 20.176 30.0586 20.0395C30.0667 19.9029 30.0467 19.7662 29.9999 19.6377C29.953 19.5091 29.8803 19.3916 29.7862 19.2923C29.6921 19.1931 29.5786 19.1141 29.4528 19.0605C29.3269 19.0068 29.1915 18.9795 29.0547 18.9803C28.9179 18.9811 28.7827 19.0099 28.6575 19.065V19.06ZM3 17H29C29.2652 17 29.5196 16.8946 29.7071 16.7071C29.8946 16.5196 30 16.2652 30 16C30 15.7348 29.8946 15.4804 29.7071 15.2929C29.5196 15.1054 29.2652 15 29 15H3C2.73478 15 2.48043 15.1054 2.29289 15.2929C2.10536 15.4804 2 15.7348 2 16C2 16.2652 2.10536 16.5196 2.29289 16.7071C2.48043 16.8946 2.73478 17 3 17Z" fill="#FFEFD9"/>
<path d="M53.056 4.376C53.4613 4.376 53.824 4.38667 54.144 4.408L55.008 26.808C54.6453 26.872 54.2507 26.9147 53.824 26.936C53.4187 26.9573 53.0133 26.968 52.608 26.968C52.224 26.968 51.84 26.968 51.456 26.968C51.0933 26.968 50.784 26.9787 50.528 27H50.496C50.3893 26.296 50.3147 25.5707 50.272 24.824C50.2507 24.056 50.2293 23.2987 50.208 22.552C50.208 21.8053 50.1973 21.0587 50.176 20.312C50.1547 19.5653 50.1013 18.8507 50.016 18.168L49.984 18.136C49.3653 18.0293 48.7467 17.976 48.128 17.976C47.5093 17.976 46.8907 18.0507 46.272 18.2C46.208 18.9467 46.176 19.6827 46.176 20.408C46.1973 21.1333 46.2187 21.8587 46.24 22.584C46.2613 23.3093 46.2613 24.024 46.24 24.728C46.24 25.4107 46.1867 26.0933 46.08 26.776C45.824 26.9253 45.4827 27 45.056 27C44.6293 27 44.2027 26.9787 43.776 26.936C43.3493 26.8933 42.944 26.8613 42.56 26.84C42.1973 26.8187 41.92 26.8613 41.728 26.968C41.6853 26.3707 41.632 25.56 41.568 24.536C41.5253 23.4907 41.4827 22.328 41.44 21.048C41.3973 19.7467 41.3547 18.3707 41.312 16.92C41.2907 15.4693 41.2693 14.0187 41.248 12.568C41.2267 11.096 41.216 9.688 41.216 8.344C41.2373 6.97867 41.2587 5.752 41.28 4.664V4.632H41.312H41.376C41.696 4.696 42.0267 4.71733 42.368 4.696C42.7307 4.67467 43.0827 4.65333 43.424 4.632C43.7867 4.61067 44.1387 4.6 44.48 4.6C44.8213 4.6 45.1413 4.64267 45.44 4.728C45.632 6.2 45.728 7.62933 45.728 9.016C45.728 10.4027 45.856 11.7787 46.112 13.144H46.144C46.6773 13.272 47.2533 13.3147 47.872 13.272C48.4907 13.208 49.0667 13.1547 49.6 13.112H49.632C49.76 11.64 49.824 10.264 49.824 8.984C49.8453 7.704 49.824 6.296 49.76 4.76C50.016 4.67466 50.3253 4.6 50.688 4.536C51.072 4.472 51.4667 4.42933 51.872 4.408C52.2773 4.36533 52.672 4.35467 53.056 4.376ZM68.0008 6.104C68.6194 6.65867 69.0567 7.30933 69.3127 8.056C69.4621 8.376 69.5688 8.70667 69.6328 9.048C69.7181 9.368 69.7821 9.69867 69.8247 10.04C69.8674 10.5733 69.8888 11.1067 69.8888 11.64C69.9101 12.152 69.9101 12.6747 69.8888 13.208C69.8248 14.3387 69.8034 15.4373 69.8247 16.504C69.8461 17.5707 69.8141 18.6587 69.7288 19.768L69.6328 20.824C69.5901 21.5707 69.4728 22.328 69.2808 23.096C69.0888 23.8427 68.8008 24.5253 68.4167 25.144C68.0541 25.656 67.5741 26.072 66.9768 26.392C66.4008 26.6907 65.7821 26.9253 65.1208 27.096C64.5234 27.2667 63.9154 27.3733 63.2968 27.416C62.6994 27.4587 62.0914 27.4587 61.4727 27.416C61.0247 27.3733 60.5874 27.3093 60.1607 27.224C59.7554 27.16 59.3607 27.0427 58.9767 26.872C58.6141 26.7013 58.2834 26.488 57.9847 26.232C57.6861 25.9547 57.4407 25.6027 57.2487 25.176C56.9501 24.6427 56.7474 24.0773 56.6407 23.48C56.5554 22.8613 56.5021 22.2427 56.4807 21.624C56.4167 19.96 56.3421 18.296 56.2567 16.632C56.1927 14.9467 56.2141 13.2613 56.3207 11.576C56.3421 10.616 56.4594 9.656 56.6727 8.696C56.9074 7.71467 57.3554 6.85067 58.0167 6.104C58.2301 5.89067 58.4754 5.69867 58.7527 5.528C59.4567 5.18667 60.2141 4.94133 61.0247 4.792C61.8567 4.62133 62.6781 4.55733 63.4888 4.6C64.3207 4.64267 65.1207 4.792 65.8888 5.048C66.6781 5.28267 67.3821 5.63467 68.0008 6.104ZM65.8888 17.4V15.864L65.8247 13.688C65.8247 13.6667 65.8034 13.4533 65.7607 13.048C65.7394 12.6213 65.7181 12.2267 65.6967 11.864C65.6541 11.2667 65.4834 10.7227 65.1848 10.232C64.9074 9.74133 64.5234 9.37867 64.0328 9.144C63.6061 8.97333 63.1687 8.94133 62.7207 9.048C62.2727 9.15466 61.8781 9.336 61.5367 9.592C60.7901 10.168 60.2887 10.904 60.0327 11.8C59.8621 12.6107 59.7554 13.464 59.7127 14.36C59.6914 15.256 59.7021 16.152 59.7448 17.048C59.8514 17.7947 59.9261 18.5627 59.9688 19.352C60.0114 20.12 60.1394 20.856 60.3527 21.56C60.5661 21.9867 60.8754 22.3173 61.2807 22.552C61.6861 22.7867 62.1234 22.9253 62.5928 22.968C63.0621 22.9893 63.5314 22.9253 64.0008 22.776C64.4701 22.6053 64.8648 22.3387 65.1848 21.976C65.3767 21.72 65.5154 21.5173 65.6007 21.368C65.6861 21.1973 65.7394 21.016 65.7607 20.824C65.7821 20.632 65.7821 20.408 65.7607 20.152C65.7607 19.8747 65.7821 19.512 65.8247 19.064C65.8461 18.6373 65.8568 18.264 65.8568 17.944C65.8781 17.624 65.8888 17.4427 65.8888 17.4ZM77.1975 4.44C79.5228 4.41867 81.7842 4.52533 83.9815 4.76C84.0242 5.464 84.0348 6.27467 84.0135 7.192C84.0135 8.10933 83.9602 8.952 83.8535 9.72C83.4482 9.63467 82.9468 9.60267 82.3495 9.624C81.7522 9.64533 80.9522 9.67733 79.9495 9.72H79.8855H79.8535C79.8535 9.74133 79.8428 9.76267 79.8215 9.784C79.8215 9.784 79.8215 9.79467 79.8215 9.816C79.8002 9.92267 79.7788 10.0933 79.7575 10.328C79.7575 10.5413 79.7575 10.8933 79.7575 11.384C79.7575 11.8533 79.7575 12.4827 79.7575 13.272C79.7788 14.04 79.8002 15.0427 79.8215 16.28C79.8428 17.496 79.8642 18.968 79.8855 20.696C79.9068 22.4027 79.9388 24.4187 79.9815 26.744V26.776V26.808C79.5975 26.872 79.1708 26.9147 78.7015 26.936C78.2535 26.936 77.7948 26.936 77.3255 26.936C76.8775 26.936 76.4295 26.936 75.9815 26.936C75.5335 26.936 75.1175 26.968 74.7335 27.032C74.7122 26.9467 74.7122 26.5627 74.7335 25.88C74.7548 25.1973 74.7655 24.184 74.7655 22.84C74.7868 21.4747 74.7762 19.736 74.7335 17.624C74.7122 15.512 74.6375 12.9627 74.5095 9.976L74.4775 9.944C74.2215 9.816 73.9015 9.74133 73.5175 9.72C73.1335 9.67733 72.7495 9.656 72.3655 9.656C71.9815 9.63467 71.6295 9.624 71.3095 9.624C70.9895 9.624 70.7655 9.60267 70.6375 9.56C70.5948 9.47467 70.5522 9.26133 70.5095 8.92C70.4882 8.57867 70.4668 8.17333 70.4455 7.704C70.4455 7.21333 70.4455 6.69067 70.4455 6.136C70.4455 5.58133 70.4668 5.048 70.5095 4.536C70.5095 4.51467 70.4988 4.504 70.4775 4.504C70.4775 4.504 70.4775 4.49333 70.4775 4.472C72.6535 4.45067 74.8935 4.44 77.1975 4.44ZM96.121 16.088C96.1637 16.1733 96.2383 16.28 96.345 16.408C96.6863 16.8347 97.0063 17.2613 97.305 17.688C97.625 18.0933 97.8917 18.5307 98.105 19C98.3397 19.448 98.4997 19.9493 98.585 20.504C98.6703 21.0587 98.649 21.6773 98.521 22.36C98.3503 23.3627 98.0197 24.184 97.529 24.824C97.0597 25.4427 96.4837 25.9227 95.801 26.264C95.1183 26.6053 94.361 26.84 93.529 26.968C92.697 27.0747 91.833 27.128 90.937 27.128C90.0623 27.1493 89.177 27.128 88.281 27.064C87.4063 27 86.585 26.9573 85.817 26.936C85.689 26.936 85.561 26.936 85.433 26.936C85.3263 26.936 85.2197 26.9147 85.113 26.872C84.985 23.1813 84.953 19.5227 85.017 15.896C85.081 12.248 85.081 8.568 85.017 4.856L85.049 4.824C85.9023 4.58933 86.809 4.408 87.769 4.28C88.729 4.152 89.6783 4.10933 90.617 4.152C91.5557 4.19467 92.4517 4.33333 93.305 4.568C94.1797 4.80267 94.9477 5.18667 95.609 5.72C96.2703 6.232 96.793 6.904 97.177 7.736C97.561 8.54667 97.753 9.54933 97.753 10.744C97.753 11.64 97.593 12.5147 97.273 13.368C96.9743 14.2213 96.6117 15.0107 96.185 15.736C96.0997 15.8853 96.0783 16.0027 96.121 16.088ZM92.569 22.296C92.8677 22.168 93.1237 21.976 93.337 21.72C93.5717 21.4 93.6783 21.016 93.657 20.568C93.657 20.12 93.5823 19.7147 93.433 19.352C93.305 19.096 93.113 18.872 92.857 18.68C92.601 18.4667 92.3343 18.328 92.057 18.264C91.6517 18.1573 91.2357 18.104 90.809 18.104C90.3823 18.0827 89.9663 18.0507 89.561 18.008C89.4757 18.328 89.401 18.6907 89.337 19.096C89.273 19.5013 89.2303 19.9173 89.209 20.344C89.209 20.7493 89.241 21.144 89.305 21.528C89.369 21.912 89.4863 22.232 89.657 22.488L89.721 22.52C90.0197 22.52 90.329 22.5307 90.649 22.552C90.9903 22.552 91.321 22.5413 91.641 22.52C91.9823 22.4773 92.2917 22.4027 92.569 22.296ZM92.601 13.336C92.8997 13.1653 93.1343 12.92 93.305 12.6C93.4543 12.344 93.5823 12.0453 93.689 11.704C93.7957 11.3627 93.7637 11.0213 93.593 10.68C93.4223 10.3387 93.1983 10.0827 92.921 9.912C92.665 9.72 92.3663 9.58133 92.025 9.496C91.5983 9.41067 91.1397 9.368 90.649 9.368C90.1797 9.34667 89.785 9.42133 89.465 9.592C89.5077 10.0827 89.4863 10.68 89.401 11.384C89.337 12.088 89.401 12.8133 89.593 13.56C89.913 13.6027 90.2543 13.6347 90.617 13.656C90.9797 13.6773 91.3317 13.6667 91.673 13.624C92.0143 13.5813 92.3237 13.4853 92.601 13.336ZM102.443 4.504C102.955 4.52533 103.691 4.52533 104.651 4.504H105.419V4.632C105.419 6.46667 105.387 8.312 105.323 10.168C105.28 12.024 105.238 13.8907 105.195 15.768C105.174 17.624 105.174 19.48 105.195 21.336C105.216 23.192 105.28 25.0267 105.387 26.84C105.216 27.0107 104.854 27.1067 104.299 27.128C103.766 27.1707 103.179 27.1813 102.539 27.16C101.92 27.1387 101.323 27.1067 100.747 27.064C100.171 27.0427 99.7763 27.064 99.563 27.128C99.7123 25.208 99.7763 23.2773 99.755 21.336C99.7337 19.3947 99.691 17.4747 99.627 15.576C99.5843 13.656 99.5523 11.768 99.531 9.912C99.531 8.03467 99.627 6.2 99.819 4.408V4.344C99.9257 4.32267 100.128 4.33333 100.427 4.376C100.747 4.39733 100.982 4.408 101.131 4.408C101.515 4.42933 101.952 4.46133 102.443 4.504ZM113.028 4.44C115.353 4.41867 117.614 4.52533 119.812 4.76C119.854 5.464 119.865 6.27467 119.844 7.192C119.844 8.10933 119.79 8.952 119.684 9.72C119.278 9.63467 118.777 9.60267 118.18 9.624C117.582 9.64533 116.782 9.67733 115.78 9.72H115.716H115.684C115.684 9.74133 115.673 9.76267 115.652 9.784C115.652 9.784 115.652 9.79467 115.652 9.816C115.63 9.92267 115.609 10.0933 115.588 10.328C115.588 10.5413 115.588 10.8933 115.588 11.384C115.588 11.8533 115.588 12.4827 115.588 13.272C115.609 14.04 115.63 15.0427 115.652 16.28C115.673 17.496 115.694 18.968 115.716 20.696C115.737 22.4027 115.769 24.4187 115.812 26.744V26.776V26.808C115.428 26.872 115.001 26.9147 114.532 26.936C114.084 26.936 113.625 26.936 113.156 26.936C112.708 26.936 112.26 26.936 111.812 26.936C111.364 26.936 110.948 26.968 110.564 27.032C110.542 26.9467 110.542 26.5627 110.564 25.88C110.585 25.1973 110.596 24.184 110.596 22.84C110.617 21.4747 110.606 19.736 110.564 17.624C110.542 15.512 110.468 12.9627 110.34 9.976L110.308 9.944C110.052 9.816 109.732 9.74133 109.348 9.72C108.964 9.67733 108.58 9.656 108.196 9.656C107.812 9.63467 107.46 9.624 107.14 9.624C106.82 9.624 106.596 9.60267 106.468 9.56C106.425 9.47467 106.382 9.26133 106.34 8.92C106.318 8.57867 106.297 8.17333 106.276 7.704C106.276 7.21333 106.276 6.69067 106.276 6.136C106.276 5.58133 106.297 5.048 106.34 4.536C106.34 4.51467 106.329 4.504 106.308 4.504C106.308 4.504 106.308 4.49333 106.308 4.472C108.484 4.45067 110.724 4.44 113.028 4.44ZM130.127 22.616C131.492 22.68 132.9 22.6907 134.351 22.648V22.712C134.394 23.3947 134.404 24.1093 134.383 24.856C134.362 25.5813 134.266 26.264 134.095 26.904C131.919 26.8827 129.7 26.9147 127.439 27C125.199 27.064 123.044 27.0107 120.975 26.84C120.975 24.984 120.954 23.1493 120.911 21.336C120.868 19.5013 120.836 17.6773 120.815 15.864C120.794 14.0507 120.794 12.2373 120.815 10.424C120.836 8.61067 120.9 6.78667 121.007 4.952C121.839 4.90933 122.735 4.87733 123.695 4.856C124.676 4.81333 125.658 4.78133 126.639 4.76C127.62 4.73867 128.57 4.71733 129.487 4.696C130.404 4.67467 131.215 4.664 131.919 4.664C132.623 4.664 133.188 4.67467 133.615 4.696C134.042 4.71733 134.255 4.73867 134.255 4.76C134.362 5.50667 134.383 6.264 134.319 7.032C134.276 7.8 134.255 8.55733 134.255 9.304V9.336C133.572 9.48533 132.879 9.58133 132.175 9.624C131.492 9.64533 130.799 9.656 130.095 9.656C129.391 9.63467 128.687 9.624 127.983 9.624C127.279 9.624 126.575 9.656 125.871 9.72H125.775L125.743 9.752C125.764 10.3707 125.732 11.0107 125.647 11.672C125.583 12.312 125.626 12.92 125.775 13.496L125.807 13.528C126.447 13.5707 127.098 13.592 127.759 13.592C128.42 13.592 129.082 13.6027 129.743 13.624V13.656C129.85 14.3813 129.882 15.1067 129.839 15.832C129.796 16.5573 129.786 17.3147 129.807 18.104C129.487 18.1893 129.124 18.2427 128.719 18.264C128.314 18.264 127.919 18.264 127.535 18.264C127.172 18.264 126.842 18.2747 126.543 18.296C126.244 18.3173 126.042 18.3707 125.935 18.456C125.828 19.0747 125.786 19.768 125.807 20.536C125.85 21.304 125.892 21.944 125.935 22.456L125.967 22.488C127.375 22.488 128.762 22.5307 130.127 22.616Z" fill="#FFEFD9"/>
</svg>
